<svg xmlns="http://www.w3.org/2000/svg" xmlns:xlink="http://www.w3.org/1999/xlink" width="512" zoomAndPan="magnify" viewBox="0 0 384 383.999986" height="512" preserveAspectRatio="xMidYMid meet" version="1.0"><defs><clipPath id="f0b1a6468f"><path d="M 288 25.800781 C 317.097656 42.707031 341.292969 66.902344 358.199219 96 C 375.097656 125.082031 384 158.117188 384 191.75 L 384 192.25 C 384 225.882812 375.097656 258.917969 358.199219 288 C 341.292969 317.097656 317.097656 341.292969 288 358.199219 C 258.917969 375.097656 225.882812 384 192.25 384 L 191.75 384 C 158.117188 384 125.082031 375.097656 96 358.199219 C 66.902344 341.292969 42.707031 317.097656 25.800781 288 C 8.902344 258.917969 0 225.882812 0 192.25 L 0 191.75 C 0 158.117188 8.902344 125.082031 25.800781 96 C 42.707031 66.902344 66.902344 42.707031 96 25.800781 C 125.082031 8.902344 158.117188 0 191.75 0 L 192.25 0 C 225.882812 0 258.917969 8.902344 288 25.800781 Z M 288 25.800781 " clip-rule="nonzero"/></clipPath><clipPath id="8ca13c0426"><path d="M 0 0 L 384 0 L 384 384 L 0 384 Z M 0 0 " clip-rule="nonzero"/></clipPath><clipPath id="5e1af3f0d1"><path d="M 288 25.800781 C 317.097656 42.707031 341.292969 66.902344 358.199219 96 C 375.097656 125.082031 384 158.117188 384 191.75 L 384 192.25 C 384 225.882812 375.097656 258.917969 358.199219 288 C 341.292969 317.097656 317.097656 341.292969 288 358.199219 C 258.917969 375.097656 225.882812 384 192.25 384 L 191.75 384 C 158.117188 384 125.082031 375.097656 96 358.199219 C 66.902344 341.292969 42.707031 317.097656 25.800781 288 C 8.902344 258.917969 0 225.882812 0 192.25 L 0 191.75 C 0 158.117188 8.902344 125.082031 25.800781 96 C 42.707031 66.902344 66.902344 42.707031 96 25.800781 C 125.082031 8.902344 158.117188 0 191.75 0 L 192.25 0 C 225.882812 0 258.917969 8.902344 288 25.800781 Z M 288 25.800781 " clip-rule="nonzero"/></clipPath><clipPath id="6a70913da9"><rect x="0" width="384" y="0" height="384"/></clipPath><clipPath id="6e17eb5417"><path d="M 195 84.378906 L 240 84.378906 L 240 109 L 195 109 Z M 195 84.378906 " clip-rule="nonzero"/></clipPath><clipPath id="968ee8cd77"><path d="M 0 146 L 384 146 L 384 284.628906 L 0 284.628906 Z M 0 146 " clip-rule="nonzero"/></clipPath></defs><g clip-path="url(#f0b1a6468f)"><g><g clip-path="url(#6a70913da9)"><g clip-path="url(#8ca13c0426)"><g clip-path="url(#5e1af3f0d1)"><rect x="-84.48" width="552.96" fill="#1e3a5e" height="552.959979" y="-84.479997" fill-opacity="1"/></g></g></g></g></g><g clip-path="url(#6e17eb5417)"><path fill="#ffffff" d="M 213.558594 85.722656 C 205.734375 87.414062 197.207031 91.433594 196.21875 93.898438 C 195.65625 95.519531 195.230469 108.984375 195.867188 108.984375 C 196.007812 108.984375 198.476562 107.855469 201.433594 106.519531 C 213.84375 100.808594 229.351562 99.609375 238.585938 103.628906 C 239.5 103.980469 239.570312 103.0625 239.21875 96.15625 C 238.9375 91.785156 238.726562 88.121094 238.65625 87.976562 C 238.65625 87.835938 237.105469 87.132812 235.273438 86.285156 C 230.476562 84.171875 221.667969 83.960938 213.558594 85.722656 Z M 213.558594 85.722656 " fill-opacity="1" fill-rule="nonzero"/></g><path fill="#ffffff" d="M 86.253906 91.007812 C 85.96875 91.363281 85.546875 101.722656 85.265625 113.917969 C 84.914062 129.285156 84.417969 137.324219 83.714844 140 C 81.8125 147.613281 69.96875 186.878906 69.476562 187.371094 C 69.191406 187.652344 67.21875 187.652344 65.105469 187.300781 C 61.722656 186.738281 60.3125 186.878906 54.53125 188.640625 L 47.90625 190.613281 L 47.691406 194.140625 L 47.480469 197.734375 L 37.332031 200.976562 L 37.121094 204.429688 C 36.90625 207.390625 37.050781 207.8125 38.105469 207.390625 C 38.742188 207.179688 42.617188 206.050781 46.777344 204.925781 L 54.25 202.949219 L 61.652344 203.9375 L 69.050781 204.996094 L 118.75 191.179688 C 146.097656 183.636719 172.886719 176.164062 178.3125 174.683594 L 188.183594 172.003906 L 188.394531 165.449219 C 188.605469 159.386719 188.464844 158.894531 187.335938 159.316406 C 186.632812 159.597656 181.132812 161.289062 175.140625 163.050781 C 169.148438 164.8125 158.4375 167.914062 151.457031 170.03125 C 144.40625 172.074219 133.339844 175.386719 126.785156 177.292969 C 120.230469 179.195312 107.894531 182.789062 99.363281 185.328125 L 83.855469 189.910156 L 78.570312 189.0625 C 73.917969 188.289062 73.28125 188.078125 73.492188 186.808594 C 73.703125 185.609375 83.078125 151.703125 83.925781 149.234375 C 84.066406 148.671875 84.347656 148.390625 84.417969 148.53125 C 84.558594 148.671875 84.417969 156.707031 84.207031 166.433594 C 83.925781 176.09375 83.855469 184.199219 83.925781 184.339844 C 84.066406 184.480469 85.195312 184.339844 86.464844 183.988281 L 88.789062 183.28125 L 88.578125 162.207031 L 88.4375 141.058594 L 94.007812 156.917969 C 97.039062 165.660156 100.070312 174.046875 100.632812 175.597656 C 101.265625 177.503906 102.113281 178.488281 103.101562 178.628906 C 103.945312 178.773438 104.652344 178.699219 104.652344 178.558594 C 104.652344 178.417969 100.84375 167.703125 96.191406 154.734375 L 87.734375 131.191406 L 87.660156 121.320312 C 87.519531 106.730469 86.746094 90.234375 86.253906 91.007812 Z M 86.253906 91.007812 " fill-opacity="1" fill-rule="nonzero"/><path fill="#ffffff" d="M 215.324219 107.152344 C 209.402344 108.421875 204.679688 110.042969 199.671875 112.578125 L 195.65625 114.625 L 195.445312 122.871094 C 195.304688 127.453125 195.304688 131.332031 195.375 131.472656 C 195.515625 131.613281 198.828125 130.625 202.773438 129.285156 L 210.035156 126.820312 L 223.078125 128.792969 C 230.265625 129.851562 237.175781 130.90625 238.445312 131.121094 L 240.699219 131.472656 L 240.699219 126.394531 C 240.699219 123.578125 240.488281 118.640625 240.207031 115.398438 L 239.78125 109.476562 L 236.609375 108.140625 C 232.523438 106.304688 221.667969 105.8125 215.324219 107.152344 Z M 215.324219 107.152344 " fill-opacity="1" fill-rule="nonzero"/><path fill="#ffffff" d="M 162.101562 121.25 C 160.550781 121.742188 157.167969 123.152344 154.558594 124.351562 L 149.765625 126.539062 L 149.765625 137.039062 C 149.765625 142.820312 149.554688 149.445312 149.34375 151.84375 L 148.847656 156.074219 L 145.042969 157.554688 C 142.925781 158.398438 140.882812 159.035156 140.53125 159.035156 C 140.179688 159.035156 139.894531 155.085938 139.894531 150.152344 L 139.894531 141.339844 L 137.429688 140.28125 C 133.761719 138.804688 127.488281 139.015625 121.78125 140.988281 C 112.96875 143.949219 113.8125 141.976562 113.8125 159.738281 L 113.8125 175.105469 L 141.09375 166.011719 C 156.109375 161.007812 168.585938 156.707031 168.867188 156.425781 C 169.148438 156.074219 169.785156 152.335938 170.347656 148.109375 L 171.265625 140.355469 L 175.355469 138.945312 L 179.371094 137.535156 L 179.371094 122.519531 L 176.550781 121.390625 C 173.167969 120.050781 166.121094 119.980469 162.101562 121.25 Z M 162.101562 121.25 " fill-opacity="1" fill-rule="nonzero"/><path fill="#ffffff" d="M 193.46875 137.535156 L 176.90625 143.3125 L 176.691406 148.671875 C 176.550781 151.703125 176.761719 154.097656 177.046875 154.097656 C 177.398438 154.097656 182.683594 152.476562 188.886719 150.503906 C 195.089844 148.53125 201.152344 146.769531 202.28125 146.558594 C 203.480469 146.34375 211.234375 147.050781 219.550781 148.039062 C 227.871094 149.09375 243.871094 150.996094 255.007812 152.335938 C 266.148438 153.675781 275.875 154.804688 276.578125 154.804688 C 277.636719 154.804688 278.058594 154.097656 278.414062 151.984375 C 278.765625 149.730469 279.1875 149.164062 280.035156 149.445312 C 280.738281 149.660156 282.996094 149.871094 285.109375 150.011719 L 288.984375 150.152344 L 289.199219 147.121094 C 289.339844 145.429688 289.199219 143.808594 288.84375 143.457031 C 288.140625 142.75 213.136719 131.402344 210.8125 131.613281 C 210.386719 131.683594 202.5625 134.292969 193.46875 137.535156 Z M 193.46875 137.535156 " fill-opacity="1" fill-rule="nonzero"/><g clip-path="url(#968ee8cd77)"><path fill="#ffffff" d="M 364.765625 147.683594 C 361.875 148.390625 342.488281 152.902344 321.765625 157.625 C 301.039062 162.347656 278.199219 167.5625 271.011719 169.253906 C 231.746094 178.488281 224.34375 180.324219 223.429688 180.605469 C 222.933594 180.816406 219.90625 184.269531 216.730469 188.359375 C 213.558594 192.375 210.742188 195.832031 210.386719 196.042969 C 209.824219 196.394531 194.949219 199.988281 143.421875 212.183594 C 93.371094 224.027344 70.039062 229.527344 65.597656 230.582031 L 60.664062 231.710938 L 57.84375 228.890625 L 54.953125 226.070312 L 48.960938 227.339844 C 45.648438 228.046875 35.921875 230.160156 27.320312 232.0625 L 11.601562 235.445312 L 11.601562 250.671875 L 14.070312 251.871094 C 16.183594 252.859375 16.746094 253.632812 18.085938 258.003906 C 19.425781 262.304688 20.203125 263.503906 23.585938 266.535156 C 29.648438 272.03125 37.121094 279.855469 36.414062 280.136719 C 36.0625 280.210938 25.628906 281.054688 13.082031 281.972656 C 0.605469 282.886719 -9.828125 283.804688 -10.039062 284.085938 C -10.320312 284.296875 78.921875 284.507812 188.183594 284.507812 C 297.445312 284.507812 386.6875 284.367188 386.546875 284.15625 C 386.335938 284.015625 380.203125 283.382812 372.871094 282.746094 C 338.964844 279.996094 317.816406 277.953125 317.042969 277.25 C 315.914062 276.402344 315.84375 269.070312 316.902344 265.125 C 318.453125 258.992188 321.554688 252.648438 347.707031 201.75 C 368.78125 160.726562 374.703125 148.671875 374.140625 147.824219 C 373.152344 146.273438 370.898438 146.203125 364.765625 147.683594 Z M 364.765625 147.683594 " fill-opacity="1" fill-rule="nonzero"/></g><path fill="#ffffff" d="M 202.351562 154.59375 C 201.789062 155.15625 201.789062 188.289062 202.351562 188.851562 C 202.5625 189.0625 203.621094 188.921875 204.609375 188.640625 C 205.664062 188.289062 207.851562 187.652344 209.472656 187.230469 C 211.9375 186.597656 213.136719 185.609375 216.238281 181.730469 L 220.046875 177.007812 L 238.300781 172.640625 C 248.3125 170.171875 261.425781 167.070312 267.34375 165.660156 C 273.265625 164.25 277.988281 162.980469 277.777344 162.769531 C 277.355469 162.347656 267.558594 161.148438 234.707031 157.625 C 220.398438 156.144531 207.285156 154.664062 205.734375 154.523438 C 204.113281 154.3125 202.632812 154.382812 202.351562 154.59375 Z M 202.351562 154.59375 " fill-opacity="1" fill-rule="nonzero"/><path fill="#ffffff" d="M 185.011719 179.195312 C 183.25 179.617188 167.742188 183.707031 150.46875 188.21875 C 133.199219 192.800781 108.527344 199.355469 95.628906 202.738281 L 72.222656 209.011719 L 63.203125 207.957031 L 54.109375 206.828125 L 40.082031 210.492188 C 32.398438 212.464844 26.050781 214.160156 25.980469 214.230469 C 25.910156 214.300781 25.699219 217.613281 25.488281 221.628906 C 25.066406 228.257812 25.136719 228.890625 26.265625 228.539062 C 26.898438 228.328125 34.089844 226.707031 42.125 224.945312 L 56.785156 221.699219 L 59.042969 223.109375 L 61.367188 224.519531 L 124.742188 208.589844 C 159.632812 199.777344 188.253906 192.589844 188.394531 192.515625 C 188.464844 192.375 188.464844 189.203125 188.394531 185.328125 L 188.183594 178.347656 Z M 185.011719 179.195312 " fill-opacity="1" fill-rule="nonzero"/></svg>